%
M48
M72
T01C0.0130
T02C0.0400
T03C0.0472
T04C0.1260
%
T01
X2480Y9715
T02
X2880Y10415
X1880Y10415
X3880Y10415
X4880Y10415
X5880Y10415
X6880Y10415
X7880Y10415
X8880Y10415
X9880Y10415
X10880Y10415
T03
X4675Y6015
X5577Y6015
X6026Y7015
X5577Y8015
X4675Y8015
X5124Y7015
X6478Y8015
X7380Y8015
X7829Y7015
X6927Y7015
X6478Y6015
X7380Y6015
X8282Y6015
X8730Y7015
X8282Y8015
T04
X11301Y7015
X1459Y7015
M30
