G75*
G70*
%OFA0B0*%
%FSLAX24Y24*%
%IPPOS*%
%LPD*%
%AMOC8*
5,1,8,0,0,1.08239X$1,22.5*
%
%ADD10R,0.0433X0.0394*%
%ADD11C,0.0709*%
%ADD12C,0.1660*%
%ADD13R,0.0600X0.0600*%
%ADD14OC8,0.0600*%
%ADD15C,0.0160*%
%ADD16C,0.0270*%
D10*
X002380Y008830D03*
X002380Y009499D03*
X003080Y009499D03*
X003080Y008830D03*
X004680Y008830D03*
X004680Y009499D03*
X005380Y009499D03*
X005380Y008830D03*
X006980Y008830D03*
X006980Y009499D03*
X007680Y009499D03*
X007680Y008830D03*
X009280Y008830D03*
X009280Y009499D03*
X009980Y009499D03*
X009980Y008830D03*
D11*
X008730Y007015D03*
X008282Y008015D03*
X007829Y007015D03*
X006927Y007015D03*
X006478Y008015D03*
X007380Y008015D03*
X006026Y007015D03*
X005577Y008015D03*
X004675Y008015D03*
X005124Y007015D03*
X004675Y006015D03*
X005577Y006015D03*
X006478Y006015D03*
X007380Y006015D03*
X008282Y006015D03*
D12*
X011301Y007015D03*
X001459Y007015D03*
D13*
X010880Y010415D03*
D14*
X009880Y010415D03*
X008880Y010415D03*
X007880Y010415D03*
X006880Y010415D03*
X005880Y010415D03*
X004880Y010415D03*
X003880Y010415D03*
X002880Y010415D03*
X001880Y010415D03*
D15*
X003780Y004915D02*
X005380Y004915D01*
X006480Y006015D01*
X006480Y006013D01*
X006478Y006015D01*
X005577Y006015D02*
X004977Y005412D01*
X004880Y005415D01*
X004080Y005415D01*
X003780Y005715D01*
X003780Y007715D01*
X003080Y008415D01*
X003080Y008830D01*
X003080Y009499D02*
X003080Y010215D01*
X002880Y010415D01*
X002480Y009715D02*
X002380Y009615D01*
X002380Y009499D01*
X002380Y008830D02*
X002380Y008315D01*
X003280Y007415D01*
X003280Y005415D01*
X003780Y004915D01*
X006478Y008015D02*
X006478Y008216D01*
X005880Y008815D01*
X005395Y008815D01*
X005380Y008830D01*
X004680Y008830D01*
X004680Y009499D02*
X004680Y010215D01*
X004880Y010415D01*
X005380Y009915D02*
X005880Y010415D01*
X005380Y009915D02*
X005380Y009499D01*
X006880Y010415D02*
X006980Y010315D01*
X006980Y009499D01*
X006980Y008830D02*
X007680Y008830D01*
X007680Y008415D01*
X007380Y008115D01*
X007380Y008015D01*
X008282Y008015D02*
X008680Y008015D01*
X009280Y008615D01*
X009280Y008830D01*
X009980Y008830D01*
X009980Y009499D02*
X009980Y010315D01*
X009880Y010415D01*
X009280Y010015D02*
X009280Y009499D01*
X009280Y010015D02*
X008880Y010415D01*
X007880Y010415D02*
X007680Y010215D01*
X007680Y009499D01*
D16*
X002480Y009715D03*
M02*
