G75*
G70*
%OFA0B0*%
%FSLAX24Y24*%
%IPPOS*%
%LPD*%
%AMOC8*
5,1,8,0,0,1.08239X$1,22.5*
%
%ADD10C,0.0709*%
%ADD11C,0.1660*%
%ADD12R,0.0600X0.0600*%
%ADD13OC8,0.0600*%
%ADD14C,0.0160*%
%ADD15C,0.0270*%
D10*
X004675Y006015D03*
X005577Y006015D03*
X006026Y007015D03*
X005577Y008015D03*
X004675Y008015D03*
X005124Y007015D03*
X006478Y008015D03*
X007380Y008015D03*
X007829Y007015D03*
X006927Y007015D03*
X006478Y006015D03*
X007380Y006015D03*
X008282Y006015D03*
X008730Y007015D03*
X008282Y008015D03*
D11*
X011301Y007015D03*
X001459Y007015D03*
D12*
X010880Y010415D03*
D13*
X009880Y010415D03*
X008880Y010415D03*
X007880Y010415D03*
X006880Y010415D03*
X005880Y010415D03*
X004880Y010415D03*
X003880Y010415D03*
X002880Y010415D03*
X001880Y010415D03*
D14*
X000410Y008785D02*
X000410Y004645D01*
X012350Y004645D01*
X012350Y008785D01*
X011485Y008785D01*
X011350Y008919D01*
X011350Y010054D01*
X011348Y010045D01*
X011324Y010004D01*
X011291Y009971D01*
X011249Y009947D01*
X011204Y009935D01*
X010900Y009935D01*
X010900Y010395D01*
X010860Y010395D01*
X010400Y010395D01*
X010400Y010091D01*
X010412Y010045D01*
X010436Y010004D01*
X010469Y009971D01*
X010511Y009947D01*
X010556Y009935D01*
X010860Y009935D01*
X010860Y010395D01*
X010860Y010435D01*
X010860Y010895D01*
X010556Y010895D01*
X010511Y010882D01*
X010469Y010859D01*
X010436Y010825D01*
X010412Y010784D01*
X010400Y010738D01*
X010400Y010435D01*
X010860Y010435D01*
X010900Y010435D01*
X010900Y010895D01*
X011075Y010895D01*
X010985Y010985D01*
X001775Y010985D01*
X001685Y010895D01*
X001860Y010895D01*
X001860Y010435D01*
X001900Y010435D01*
X001900Y010895D01*
X002079Y010895D01*
X002360Y010614D01*
X002360Y010435D01*
X001900Y010435D01*
X001900Y010395D01*
X002360Y010395D01*
X002360Y010216D01*
X002079Y009935D01*
X001900Y009935D01*
X001900Y010395D01*
X001860Y010395D01*
X001860Y009935D01*
X001681Y009935D01*
X001410Y010206D01*
X001410Y008919D01*
X001275Y008785D01*
X000410Y008785D01*
X000410Y008694D02*
X012350Y008694D01*
X012350Y008536D02*
X004801Y008536D01*
X004800Y008536D02*
X004717Y008549D01*
X004713Y008549D01*
X004713Y008053D01*
X004637Y008053D01*
X004637Y007977D01*
X004141Y007977D01*
X004141Y007973D01*
X004154Y007890D01*
X004180Y007810D01*
X004218Y007735D01*
X004268Y007667D01*
X004327Y007607D01*
X004395Y007558D01*
X004470Y007520D01*
X004550Y007494D01*
X004633Y007480D01*
X004637Y007480D01*
X004637Y007977D01*
X004713Y007977D01*
X004713Y007480D01*
X004717Y007480D01*
X004800Y007494D01*
X004880Y007520D01*
X004955Y007558D01*
X005023Y007607D01*
X005083Y007667D01*
X005132Y007735D01*
X005146Y007762D01*
X005158Y007735D01*
X005297Y007596D01*
X005479Y007520D01*
X005675Y007520D01*
X005857Y007596D01*
X005996Y007735D01*
X006028Y007811D01*
X006059Y007735D01*
X006198Y007596D01*
X006380Y007520D01*
X006577Y007520D01*
X006758Y007596D01*
X006897Y007735D01*
X006929Y007811D01*
X006961Y007735D01*
X007100Y007596D01*
X007282Y007520D01*
X007478Y007520D01*
X007660Y007596D01*
X007799Y007735D01*
X007831Y007811D01*
X007863Y007735D01*
X008002Y007596D01*
X008183Y007520D01*
X008380Y007520D01*
X008562Y007596D01*
X008701Y007735D01*
X008776Y007916D01*
X008776Y008113D01*
X008701Y008295D01*
X008562Y008434D01*
X008380Y008509D01*
X008183Y008509D01*
X008002Y008434D01*
X007863Y008295D01*
X007831Y008218D01*
X007799Y008295D01*
X007660Y008434D01*
X007478Y008509D01*
X007282Y008509D01*
X007100Y008434D01*
X006961Y008295D01*
X006929Y008218D01*
X006897Y008295D01*
X006758Y008434D01*
X006577Y008509D01*
X006380Y008509D01*
X006198Y008434D01*
X006059Y008295D01*
X006028Y008218D01*
X005996Y008295D01*
X005857Y008434D01*
X005675Y008509D01*
X005479Y008509D01*
X005297Y008434D01*
X005158Y008295D01*
X005146Y008267D01*
X005132Y008295D01*
X005083Y008363D01*
X005023Y008422D01*
X004955Y008472D01*
X004880Y008510D01*
X004800Y008536D01*
X004713Y008536D02*
X004637Y008536D01*
X004637Y008549D02*
X004633Y008549D01*
X004550Y008536D01*
X004470Y008510D01*
X004395Y008472D01*
X004327Y008422D01*
X004268Y008363D01*
X004218Y008295D01*
X004180Y008220D01*
X004154Y008140D01*
X004141Y008057D01*
X004141Y008053D01*
X004637Y008053D01*
X004637Y008549D01*
X004550Y008536D02*
X000410Y008536D01*
X000410Y008377D02*
X004282Y008377D01*
X004180Y008219D02*
X000410Y008219D01*
X000410Y008060D02*
X004141Y008060D01*
X004152Y007902D02*
X001852Y007902D01*
X002008Y007837D02*
X001652Y007985D01*
X001266Y007985D01*
X000909Y007837D01*
X000636Y007564D01*
X000489Y007208D01*
X000489Y006822D01*
X000636Y006465D01*
X000909Y006193D01*
X001266Y006045D01*
X001652Y006045D01*
X002008Y006193D01*
X002281Y006465D01*
X002429Y006822D01*
X002429Y007208D01*
X002281Y007564D01*
X002008Y007837D01*
X002102Y007743D02*
X004214Y007743D01*
X004358Y007585D02*
X002260Y007585D01*
X002338Y007426D02*
X004781Y007426D01*
X004776Y007422D02*
X004717Y007363D01*
X004667Y007295D01*
X004629Y007220D01*
X004603Y007140D01*
X004590Y007057D01*
X004590Y007053D01*
X005086Y007053D01*
X005086Y007549D01*
X005082Y007549D01*
X004999Y007536D01*
X004919Y007510D01*
X004844Y007472D01*
X004776Y007422D01*
X004713Y007585D02*
X004637Y007585D01*
X004637Y007743D02*
X004713Y007743D01*
X004713Y007902D02*
X004637Y007902D01*
X004637Y008060D02*
X004713Y008060D01*
X004713Y008219D02*
X004637Y008219D01*
X004637Y008377D02*
X004713Y008377D01*
X005068Y008377D02*
X005240Y008377D01*
X005154Y007743D02*
X005137Y007743D01*
X005162Y007549D02*
X005162Y007053D01*
X005086Y007053D01*
X005086Y006977D01*
X004590Y006977D01*
X004590Y006973D01*
X004603Y006890D01*
X004629Y006810D01*
X004667Y006735D01*
X004717Y006667D01*
X004776Y006607D01*
X004844Y006558D01*
X004919Y006520D01*
X004999Y006494D01*
X005082Y006480D01*
X005086Y006480D01*
X005086Y006977D01*
X005162Y006977D01*
X005162Y007053D01*
X005988Y007053D01*
X005988Y007549D01*
X005984Y007549D01*
X005901Y007536D01*
X005821Y007510D01*
X005746Y007472D01*
X005678Y007422D01*
X005618Y007363D01*
X005575Y007303D01*
X005532Y007363D01*
X005472Y007422D01*
X005404Y007472D01*
X005329Y007510D01*
X005249Y007536D01*
X005166Y007549D01*
X005162Y007549D01*
X005162Y007426D02*
X005086Y007426D01*
X005086Y007268D02*
X005162Y007268D01*
X005162Y007109D02*
X005086Y007109D01*
X005162Y006977D02*
X005491Y006977D01*
X005988Y006977D01*
X006064Y006977D01*
X006064Y007053D01*
X006889Y007053D01*
X006889Y007549D01*
X006885Y007549D01*
X006802Y007536D01*
X006722Y007510D01*
X006647Y007472D01*
X006579Y007422D01*
X006520Y007363D01*
X006476Y007303D01*
X006433Y007363D01*
X006374Y007422D01*
X006306Y007472D01*
X006231Y007510D01*
X006151Y007536D01*
X006068Y007549D01*
X006064Y007549D01*
X006064Y007053D01*
X005988Y007053D01*
X005988Y006977D01*
X005988Y006480D01*
X005984Y006480D01*
X005901Y006494D01*
X005821Y006520D01*
X005746Y006558D01*
X005678Y006607D01*
X005618Y006667D01*
X005575Y006726D01*
X005532Y006667D01*
X005472Y006607D01*
X005404Y006558D01*
X005329Y006520D01*
X005249Y006494D01*
X005166Y006480D01*
X005162Y006480D01*
X005162Y006977D01*
X005162Y006951D02*
X005086Y006951D01*
X005086Y006792D02*
X005162Y006792D01*
X005162Y006634D02*
X005086Y006634D01*
X004955Y006434D02*
X004774Y006509D01*
X004577Y006509D01*
X004395Y006434D01*
X004256Y006295D01*
X004181Y006113D01*
X004181Y005916D01*
X004256Y005735D01*
X004395Y005596D01*
X004577Y005520D01*
X004774Y005520D01*
X004955Y005596D01*
X005094Y005735D01*
X005126Y005811D01*
X005158Y005735D01*
X005297Y005596D01*
X005479Y005520D01*
X005675Y005520D01*
X005857Y005596D01*
X005996Y005735D01*
X006028Y005811D01*
X006059Y005735D01*
X006198Y005596D01*
X006380Y005520D01*
X006577Y005520D01*
X006758Y005596D01*
X006897Y005735D01*
X006929Y005811D01*
X006961Y005735D01*
X007100Y005596D01*
X007282Y005520D01*
X007478Y005520D01*
X007660Y005596D01*
X007799Y005735D01*
X007831Y005811D01*
X007863Y005735D01*
X008002Y005596D01*
X008183Y005520D01*
X008380Y005520D01*
X008562Y005596D01*
X008701Y005735D01*
X008776Y005916D01*
X008776Y006113D01*
X008701Y006295D01*
X008562Y006434D01*
X008380Y006509D01*
X008183Y006509D01*
X008002Y006434D01*
X007863Y006295D01*
X007831Y006218D01*
X007799Y006295D01*
X007660Y006434D01*
X007478Y006509D01*
X007282Y006509D01*
X007100Y006434D01*
X006961Y006295D01*
X006929Y006218D01*
X006897Y006295D01*
X006758Y006434D01*
X006577Y006509D01*
X006380Y006509D01*
X006198Y006434D01*
X006059Y006295D01*
X006028Y006218D01*
X005996Y006295D01*
X005857Y006434D01*
X005675Y006509D01*
X005479Y006509D01*
X005297Y006434D01*
X005158Y006295D01*
X005126Y006218D01*
X005094Y006295D01*
X004955Y006434D01*
X004855Y006475D02*
X005397Y006475D01*
X005499Y006634D02*
X005651Y006634D01*
X005757Y006475D02*
X006298Y006475D01*
X006231Y006520D02*
X006306Y006558D01*
X006374Y006607D01*
X006433Y006667D01*
X006476Y006726D01*
X006520Y006667D01*
X006579Y006607D01*
X006647Y006558D01*
X006722Y006520D01*
X006802Y006494D01*
X006885Y006480D01*
X006889Y006480D01*
X006889Y006977D01*
X006393Y006977D01*
X006064Y006977D01*
X006064Y006480D01*
X006068Y006480D01*
X006151Y006494D01*
X006231Y006520D01*
X006064Y006634D02*
X005988Y006634D01*
X005988Y006792D02*
X006064Y006792D01*
X006064Y006951D02*
X005988Y006951D01*
X005988Y007109D02*
X006064Y007109D01*
X006064Y007268D02*
X005988Y007268D01*
X005988Y007426D02*
X006064Y007426D01*
X006225Y007585D02*
X005830Y007585D01*
X005683Y007426D02*
X005467Y007426D01*
X005323Y007585D02*
X004992Y007585D01*
X004653Y007268D02*
X002404Y007268D01*
X002429Y007109D02*
X004598Y007109D01*
X004593Y006951D02*
X002429Y006951D01*
X002416Y006792D02*
X004638Y006792D01*
X004749Y006634D02*
X002351Y006634D01*
X002285Y006475D02*
X004495Y006475D01*
X004278Y006317D02*
X002132Y006317D01*
X001925Y006158D02*
X004200Y006158D01*
X004181Y006000D02*
X000410Y006000D01*
X000410Y006158D02*
X000992Y006158D01*
X000785Y006317D02*
X000410Y006317D01*
X000410Y006475D02*
X000632Y006475D01*
X000567Y006634D02*
X000410Y006634D01*
X000410Y006792D02*
X000501Y006792D01*
X000489Y006951D02*
X000410Y006951D01*
X000410Y007109D02*
X000489Y007109D01*
X000514Y007268D02*
X000410Y007268D01*
X000410Y007426D02*
X000579Y007426D01*
X000657Y007585D02*
X000410Y007585D01*
X000410Y007743D02*
X000816Y007743D01*
X001066Y007902D02*
X000410Y007902D01*
X001343Y008853D02*
X011417Y008853D01*
X011350Y009011D02*
X001410Y009011D01*
X001410Y009170D02*
X011350Y009170D01*
X011350Y009328D02*
X001410Y009328D01*
X001410Y009487D02*
X002319Y009487D01*
X002324Y009482D02*
X002425Y009440D01*
X002535Y009440D01*
X002636Y009482D01*
X002649Y009495D01*
X003271Y009495D01*
X003751Y009975D01*
X004062Y009975D01*
X004320Y010233D01*
X004320Y010597D01*
X004062Y010855D01*
X003698Y010855D01*
X003440Y010597D01*
X003440Y010286D01*
X003089Y009935D01*
X002649Y009935D01*
X002636Y009948D01*
X002535Y009990D01*
X002425Y009990D01*
X002324Y009948D01*
X002247Y009871D01*
X002205Y009769D01*
X002205Y009660D01*
X002247Y009559D01*
X002324Y009482D01*
X002211Y009645D02*
X001410Y009645D01*
X001410Y009804D02*
X002219Y009804D01*
X002106Y009962D02*
X002359Y009962D01*
X002265Y010121D02*
X002552Y010121D01*
X002440Y010233D02*
X002698Y009975D01*
X003062Y009975D01*
X003320Y010233D01*
X003320Y010597D01*
X003062Y010855D01*
X002698Y010855D01*
X002440Y010597D01*
X002440Y010233D01*
X002440Y010279D02*
X002360Y010279D01*
X002360Y010438D02*
X002440Y010438D01*
X002440Y010596D02*
X002360Y010596D01*
X002219Y010755D02*
X002598Y010755D01*
X003162Y010755D02*
X003598Y010755D01*
X003440Y010596D02*
X003320Y010596D01*
X003320Y010438D02*
X003440Y010438D01*
X003433Y010279D02*
X003320Y010279D01*
X003275Y010121D02*
X003208Y010121D01*
X003116Y009962D02*
X002601Y009962D01*
X002480Y009715D02*
X003180Y009715D01*
X003880Y010415D01*
X004320Y010438D02*
X004440Y010438D01*
X004440Y010596D02*
X004320Y010596D01*
X004440Y010597D02*
X004440Y010233D01*
X004698Y009975D01*
X005062Y009975D01*
X005320Y010233D01*
X005320Y010597D01*
X005062Y010855D01*
X004698Y010855D01*
X004440Y010597D01*
X004598Y010755D02*
X004162Y010755D01*
X004320Y010279D02*
X004440Y010279D01*
X004552Y010121D02*
X004208Y010121D01*
X003739Y009962D02*
X010484Y009962D01*
X010400Y010121D02*
X010208Y010121D01*
X010320Y010233D02*
X010062Y009975D01*
X009698Y009975D01*
X009440Y010233D01*
X009440Y010597D01*
X009698Y010855D01*
X010062Y010855D01*
X010320Y010597D01*
X010320Y010233D01*
X010320Y010279D02*
X010400Y010279D01*
X010400Y010438D02*
X010320Y010438D01*
X010320Y010596D02*
X010400Y010596D01*
X010404Y010755D02*
X010162Y010755D01*
X009598Y010755D02*
X009162Y010755D01*
X009062Y010855D02*
X008698Y010855D01*
X008440Y010597D01*
X008440Y010233D01*
X008698Y009975D01*
X009062Y009975D01*
X009320Y010233D01*
X009320Y010597D01*
X009062Y010855D01*
X009320Y010596D02*
X009440Y010596D01*
X009440Y010438D02*
X009320Y010438D01*
X009320Y010279D02*
X009440Y010279D01*
X009552Y010121D02*
X009208Y010121D01*
X008552Y010121D02*
X008208Y010121D01*
X008320Y010233D02*
X008062Y009975D01*
X007698Y009975D01*
X007440Y010233D01*
X007440Y010597D01*
X007698Y010855D01*
X008062Y010855D01*
X008320Y010597D01*
X008320Y010233D01*
X008320Y010279D02*
X008440Y010279D01*
X008440Y010438D02*
X008320Y010438D01*
X008320Y010596D02*
X008440Y010596D01*
X008598Y010755D02*
X008162Y010755D01*
X007598Y010755D02*
X007162Y010755D01*
X007062Y010855D02*
X006698Y010855D01*
X006440Y010597D01*
X006440Y010233D01*
X006698Y009975D01*
X007062Y009975D01*
X007320Y010233D01*
X007320Y010597D01*
X007062Y010855D01*
X007320Y010596D02*
X007440Y010596D01*
X007440Y010438D02*
X007320Y010438D01*
X007320Y010279D02*
X007440Y010279D01*
X007552Y010121D02*
X007208Y010121D01*
X006598Y010755D02*
X006162Y010755D01*
X006062Y010855D02*
X005698Y010855D01*
X005440Y010597D01*
X005440Y010233D01*
X005698Y009975D01*
X006062Y009975D01*
X006320Y010233D01*
X006320Y010597D01*
X006062Y010855D01*
X006320Y010596D02*
X006440Y010596D01*
X006440Y010438D02*
X006320Y010438D01*
X006320Y010279D02*
X006440Y010279D01*
X006552Y010121D02*
X006208Y010121D01*
X005552Y010121D02*
X005208Y010121D01*
X005320Y010279D02*
X005440Y010279D01*
X005440Y010438D02*
X005320Y010438D01*
X005320Y010596D02*
X005440Y010596D01*
X005598Y010755D02*
X005162Y010755D01*
X003580Y009804D02*
X011350Y009804D01*
X011350Y009962D02*
X011276Y009962D01*
X011350Y009645D02*
X003422Y009645D01*
X002641Y009487D02*
X011350Y009487D01*
X010900Y009962D02*
X010860Y009962D01*
X010860Y010121D02*
X010900Y010121D01*
X010900Y010279D02*
X010860Y010279D01*
X010860Y010438D02*
X010900Y010438D01*
X010900Y010596D02*
X010860Y010596D01*
X010860Y010755D02*
X010900Y010755D01*
X011056Y010913D02*
X001704Y010913D01*
X001860Y010755D02*
X001900Y010755D01*
X001900Y010596D02*
X001860Y010596D01*
X001860Y010438D02*
X001900Y010438D01*
X001900Y010279D02*
X001860Y010279D01*
X001860Y010121D02*
X001900Y010121D01*
X001900Y009962D02*
X001860Y009962D01*
X001654Y009962D02*
X001410Y009962D01*
X001410Y010121D02*
X001495Y010121D01*
X000410Y005841D02*
X004212Y005841D01*
X004308Y005683D02*
X000410Y005683D01*
X000410Y005524D02*
X004568Y005524D01*
X004783Y005524D02*
X005469Y005524D01*
X005684Y005524D02*
X006371Y005524D01*
X006586Y005524D02*
X007272Y005524D01*
X007488Y005524D02*
X008174Y005524D01*
X007914Y005683D02*
X007747Y005683D01*
X007777Y006317D02*
X007884Y006317D01*
X007871Y006480D02*
X007954Y006494D01*
X008034Y006520D01*
X008109Y006558D01*
X008177Y006607D01*
X008236Y006667D01*
X008280Y006726D01*
X008323Y006667D01*
X008382Y006607D01*
X008450Y006558D01*
X008525Y006520D01*
X008605Y006494D01*
X008688Y006480D01*
X008692Y006480D01*
X008692Y006977D01*
X007867Y006977D01*
X007867Y007053D01*
X007791Y007053D01*
X007791Y007549D01*
X007787Y007549D01*
X007704Y007536D01*
X007624Y007510D01*
X007549Y007472D01*
X007481Y007422D01*
X007421Y007363D01*
X007378Y007303D01*
X007335Y007363D01*
X007275Y007422D01*
X007207Y007472D01*
X007132Y007510D01*
X007052Y007536D01*
X006969Y007549D01*
X006965Y007549D01*
X006965Y007053D01*
X006889Y007053D01*
X006889Y006977D01*
X006965Y006977D01*
X006965Y006480D01*
X006969Y006480D01*
X007052Y006494D01*
X007132Y006520D01*
X007207Y006558D01*
X007275Y006607D01*
X007335Y006667D01*
X007378Y006726D01*
X007421Y006667D01*
X007481Y006607D01*
X007549Y006558D01*
X007624Y006520D01*
X007704Y006494D01*
X007787Y006480D01*
X007791Y006480D01*
X007791Y006977D01*
X007462Y006977D01*
X006965Y006977D01*
X006965Y007053D01*
X007791Y007053D01*
X007791Y006977D01*
X007867Y006977D01*
X007867Y006480D01*
X007871Y006480D01*
X007867Y006634D02*
X007791Y006634D01*
X007791Y006792D02*
X007867Y006792D01*
X007867Y006951D02*
X007791Y006951D01*
X007867Y007053D02*
X008363Y007053D01*
X008692Y007053D01*
X008692Y006977D01*
X008769Y006977D01*
X008769Y007053D01*
X009265Y007053D01*
X009265Y007057D01*
X009252Y007140D01*
X009226Y007220D01*
X009187Y007295D01*
X009138Y007363D01*
X009078Y007422D01*
X009010Y007472D01*
X008936Y007510D01*
X008856Y007536D01*
X008772Y007549D01*
X008769Y007549D01*
X008769Y007053D01*
X008692Y007053D01*
X008692Y007549D01*
X008688Y007549D01*
X008605Y007536D01*
X008525Y007510D01*
X008450Y007472D01*
X008382Y007422D01*
X008323Y007363D01*
X008280Y007303D01*
X008236Y007363D01*
X008177Y007422D01*
X008109Y007472D01*
X008034Y007510D01*
X007954Y007536D01*
X007871Y007549D01*
X007867Y007549D01*
X007867Y007053D01*
X007867Y007109D02*
X007791Y007109D01*
X007791Y007268D02*
X007867Y007268D01*
X007867Y007426D02*
X007791Y007426D01*
X007634Y007585D02*
X008028Y007585D01*
X008171Y007426D02*
X008388Y007426D01*
X008535Y007585D02*
X010500Y007585D01*
X010479Y007564D02*
X010331Y007208D01*
X010331Y006822D01*
X010479Y006465D01*
X010752Y006193D01*
X011108Y006045D01*
X011494Y006045D01*
X011851Y006193D01*
X012124Y006465D01*
X012271Y006822D01*
X012271Y007208D01*
X012124Y007564D01*
X011851Y007837D01*
X011494Y007985D01*
X011108Y007985D01*
X010752Y007837D01*
X010479Y007564D01*
X010422Y007426D02*
X009073Y007426D01*
X009201Y007268D02*
X010356Y007268D01*
X010331Y007109D02*
X009256Y007109D01*
X009265Y006977D02*
X008769Y006977D01*
X008769Y006480D01*
X008772Y006480D01*
X008856Y006494D01*
X008936Y006520D01*
X009010Y006558D01*
X009078Y006607D01*
X009138Y006667D01*
X009187Y006735D01*
X009226Y006810D01*
X009252Y006890D01*
X009265Y006973D01*
X009265Y006977D01*
X009261Y006951D02*
X010331Y006951D01*
X010344Y006792D02*
X009217Y006792D01*
X009105Y006634D02*
X010409Y006634D01*
X010475Y006475D02*
X008462Y006475D01*
X008356Y006634D02*
X008203Y006634D01*
X008102Y006475D02*
X007560Y006475D01*
X007454Y006634D02*
X007302Y006634D01*
X007200Y006475D02*
X006658Y006475D01*
X006553Y006634D02*
X006400Y006634D01*
X006081Y006317D02*
X005974Y006317D01*
X005944Y005683D02*
X006111Y005683D01*
X006846Y005683D02*
X007013Y005683D01*
X006983Y006317D02*
X006876Y006317D01*
X006889Y006634D02*
X006965Y006634D01*
X006965Y006792D02*
X006889Y006792D01*
X006889Y006951D02*
X006965Y006951D01*
X006965Y007109D02*
X006889Y007109D01*
X006889Y007268D02*
X006965Y007268D01*
X006965Y007426D02*
X006889Y007426D01*
X006732Y007585D02*
X007126Y007585D01*
X007270Y007426D02*
X007486Y007426D01*
X007803Y007743D02*
X007859Y007743D01*
X007831Y008219D02*
X007831Y008219D01*
X007717Y008377D02*
X007945Y008377D01*
X008618Y008377D02*
X012350Y008377D01*
X012350Y008219D02*
X008732Y008219D01*
X008776Y008060D02*
X012350Y008060D01*
X012350Y007902D02*
X011694Y007902D01*
X011944Y007743D02*
X012350Y007743D01*
X012350Y007585D02*
X012103Y007585D01*
X012181Y007426D02*
X012350Y007426D01*
X012350Y007268D02*
X012246Y007268D01*
X012271Y007109D02*
X012350Y007109D01*
X012350Y006951D02*
X012271Y006951D01*
X012259Y006792D02*
X012350Y006792D01*
X012350Y006634D02*
X012193Y006634D01*
X012128Y006475D02*
X012350Y006475D01*
X012350Y006317D02*
X011975Y006317D01*
X011768Y006158D02*
X012350Y006158D01*
X012350Y006000D02*
X008776Y006000D01*
X008757Y006158D02*
X010834Y006158D01*
X010628Y006317D02*
X008679Y006317D01*
X008692Y006634D02*
X008769Y006634D01*
X008769Y006792D02*
X008692Y006792D01*
X008692Y006951D02*
X008769Y006951D01*
X008769Y007109D02*
X008692Y007109D01*
X008692Y007268D02*
X008769Y007268D01*
X008769Y007426D02*
X008692Y007426D01*
X008704Y007743D02*
X010658Y007743D01*
X010908Y007902D02*
X008770Y007902D01*
X007043Y008377D02*
X006815Y008377D01*
X006929Y008219D02*
X006929Y008219D01*
X006901Y007743D02*
X006957Y007743D01*
X006585Y007426D02*
X006368Y007426D01*
X006056Y007743D02*
X005999Y007743D01*
X006027Y008219D02*
X006028Y008219D01*
X006142Y008377D02*
X005913Y008377D01*
X005180Y006317D02*
X005072Y006317D01*
X005042Y005683D02*
X005210Y005683D01*
X008389Y005524D02*
X012350Y005524D01*
X012350Y005366D02*
X000410Y005366D01*
X000410Y005207D02*
X012350Y005207D01*
X012350Y005049D02*
X000410Y005049D01*
X000410Y004890D02*
X012350Y004890D01*
X012350Y004732D02*
X000410Y004732D01*
X008649Y005683D02*
X012350Y005683D01*
X012350Y005841D02*
X008745Y005841D01*
D15*
X002480Y009715D03*
M02*
