G75*
G70*
%OFA0B0*%
%FSLAX24Y24*%
%IPPOS*%
%LPD*%
%AMOC8*
5,1,8,0,0,1.08239X$1,22.5*
%
%ADD10C,0.0080*%
D10*
X005308Y004755D02*
X005308Y005275D01*
X005655Y005275D02*
X005308Y004755D01*
X005655Y004755D02*
X005655Y005275D01*
X005860Y005188D02*
X006207Y004842D01*
X006121Y004755D01*
X005947Y004755D01*
X005860Y004842D01*
X005860Y005188D01*
X005947Y005275D01*
X006121Y005275D01*
X006207Y005188D01*
X006207Y004842D01*
X006402Y004755D02*
X006576Y004755D01*
X006489Y004755D02*
X006489Y005275D01*
X006576Y005275D02*
X006402Y005275D01*
X006781Y005275D02*
X007128Y005275D01*
X007128Y004755D01*
X007334Y004842D02*
X007334Y005015D01*
X007420Y005102D01*
X007681Y005102D01*
X007681Y004581D01*
X007681Y004755D02*
X007420Y004755D01*
X007334Y004842D01*
X007128Y005015D02*
X006955Y005015D01*
X007886Y005015D02*
X007886Y004755D01*
X007886Y005015D02*
X007973Y005102D01*
X008146Y005102D01*
X008233Y005015D01*
X008233Y005275D02*
X008233Y004755D01*
X008786Y004755D02*
X008439Y005275D01*
X008980Y004755D02*
X009154Y004755D01*
X009067Y004755D02*
X009067Y005275D01*
X009154Y005275D01*
X009359Y005102D02*
X009620Y005102D01*
X009706Y005015D01*
X009706Y004842D01*
X009620Y004755D01*
X009359Y004755D01*
X009359Y004668D02*
X009359Y005102D01*
X009359Y004668D02*
X009446Y004581D01*
X009533Y004581D01*
X009896Y004755D02*
X009983Y004755D01*
X009983Y004842D01*
X009896Y004842D01*
X009896Y004755D01*
X010188Y004842D02*
X010188Y005015D01*
X010275Y005102D01*
X010448Y005102D01*
X010535Y005015D01*
X010535Y004842D01*
X010448Y004755D01*
X010275Y004755D01*
X010188Y004842D01*
X010741Y004842D02*
X010741Y005015D01*
X010827Y005102D01*
X011001Y005102D01*
X011088Y005015D01*
X011088Y004842D01*
X011001Y004755D01*
X010827Y004755D01*
X010741Y004842D01*
X011293Y004755D02*
X011553Y004755D01*
X011640Y004842D01*
X011640Y005015D01*
X011553Y005102D01*
X011293Y005102D01*
X011293Y004668D01*
X011380Y004581D01*
X011467Y004581D01*
X010637Y008705D02*
X010690Y008758D01*
X010690Y008865D01*
X010637Y008918D01*
X010584Y008918D01*
X010370Y008705D01*
X010370Y008918D01*
X010530Y009073D02*
X010530Y009287D01*
X010370Y009233D02*
X010690Y009233D01*
X010530Y009073D01*
X010423Y009441D02*
X010637Y009655D01*
X010423Y009655D01*
X010370Y009602D01*
X010370Y009495D01*
X010423Y009441D01*
X010637Y009441D01*
X010690Y009495D01*
X010690Y009602D01*
X010637Y009655D01*
X010630Y009915D02*
X011130Y009915D01*
X011380Y010165D01*
X011380Y010665D01*
X011130Y010915D01*
X010630Y010915D01*
X010380Y010665D01*
X010130Y010915D01*
X009630Y010915D01*
X009380Y010665D01*
X009380Y010165D01*
X009630Y009915D01*
X010130Y009915D01*
X010380Y010165D01*
X010630Y009915D01*
X010380Y010165D02*
X010380Y010665D01*
X009380Y010665D02*
X009130Y010915D01*
X008630Y010915D01*
X008380Y010665D01*
X008130Y010915D01*
X007630Y010915D01*
X007380Y010665D01*
X007130Y010915D01*
X006630Y010915D01*
X006380Y010665D01*
X006380Y010165D01*
X006630Y009915D01*
X007130Y009915D01*
X007380Y010165D01*
X007630Y009915D01*
X008130Y009915D01*
X008380Y010165D01*
X008630Y009915D01*
X009130Y009915D01*
X009380Y010165D01*
X008837Y009655D02*
X008890Y009602D01*
X008890Y009495D01*
X008837Y009441D01*
X008623Y009441D01*
X008837Y009655D01*
X008623Y009655D01*
X008570Y009602D01*
X008570Y009495D01*
X008623Y009441D01*
X008390Y009495D02*
X008390Y009602D01*
X008337Y009655D01*
X008123Y009441D01*
X008070Y009495D01*
X008070Y009602D01*
X008123Y009655D01*
X008337Y009655D01*
X008390Y009495D02*
X008337Y009441D01*
X008123Y009441D01*
X008230Y009287D02*
X008230Y009073D01*
X008390Y009233D01*
X008070Y009233D01*
X008070Y008918D02*
X008070Y008705D01*
X008284Y008918D01*
X008337Y008918D01*
X008390Y008865D01*
X008390Y008758D01*
X008337Y008705D01*
X008570Y008865D02*
X008890Y008865D01*
X008730Y008705D01*
X008730Y008918D01*
X008623Y009073D02*
X008570Y009073D01*
X008623Y009073D02*
X008837Y009287D01*
X008890Y009287D01*
X008890Y009073D01*
X008380Y010165D02*
X008380Y010665D01*
X007380Y010665D02*
X007380Y010165D01*
X006590Y009602D02*
X006537Y009655D01*
X006323Y009441D01*
X006270Y009495D01*
X006270Y009602D01*
X006323Y009655D01*
X006537Y009655D01*
X006590Y009602D02*
X006590Y009495D01*
X006537Y009441D01*
X006323Y009441D01*
X006537Y009287D02*
X006323Y009073D01*
X006270Y009073D01*
X006270Y008865D02*
X006590Y008865D01*
X006430Y008705D01*
X006430Y008918D01*
X006590Y009073D02*
X006590Y009287D01*
X006537Y009287D01*
X006090Y009233D02*
X005930Y009073D01*
X005930Y009287D01*
X005770Y009233D02*
X006090Y009233D01*
X006037Y009441D02*
X005823Y009441D01*
X006037Y009655D01*
X005823Y009655D01*
X005770Y009602D01*
X005770Y009495D01*
X005823Y009441D01*
X006037Y009441D02*
X006090Y009495D01*
X006090Y009602D01*
X006037Y009655D01*
X006130Y009915D02*
X006380Y010165D01*
X006130Y009915D02*
X005630Y009915D01*
X005380Y010165D01*
X005130Y009915D01*
X004630Y009915D01*
X004380Y010165D01*
X004130Y009915D01*
X003630Y009915D01*
X003380Y010165D01*
X003380Y010665D01*
X003630Y010915D01*
X004130Y010915D01*
X004380Y010665D01*
X004380Y010165D01*
X004237Y009655D02*
X004023Y009655D01*
X003970Y009602D01*
X003970Y009495D01*
X004023Y009441D01*
X004237Y009655D01*
X004290Y009602D01*
X004290Y009495D01*
X004237Y009441D01*
X004023Y009441D01*
X004237Y009287D02*
X004023Y009073D01*
X003970Y009073D01*
X003970Y008865D02*
X004290Y008865D01*
X004130Y008705D01*
X004130Y008918D01*
X004290Y009073D02*
X004290Y009287D01*
X004237Y009287D01*
X003790Y009233D02*
X003630Y009073D01*
X003630Y009287D01*
X003470Y009233D02*
X003790Y009233D01*
X003737Y009441D02*
X003790Y009495D01*
X003790Y009602D01*
X003737Y009655D01*
X003523Y009441D01*
X003470Y009495D01*
X003470Y009602D01*
X003523Y009655D01*
X003737Y009655D01*
X003737Y009441D02*
X003523Y009441D01*
X003470Y008918D02*
X003470Y008705D01*
X003684Y008918D01*
X003737Y008918D01*
X003790Y008865D01*
X003790Y008758D01*
X003737Y008705D01*
X003841Y007775D02*
X003771Y007705D01*
X003771Y007565D01*
X003841Y007495D01*
X004051Y007495D01*
X003911Y007495D02*
X003771Y007355D01*
X003591Y007425D02*
X003311Y007705D01*
X003311Y007425D01*
X003381Y007355D01*
X003521Y007355D01*
X003591Y007425D01*
X003591Y007705D01*
X003521Y007775D01*
X003381Y007775D01*
X003311Y007705D01*
X003131Y007425D02*
X003061Y007425D01*
X003061Y007355D01*
X003131Y007355D01*
X003131Y007425D01*
X002900Y007425D02*
X002830Y007355D01*
X002690Y007355D01*
X002620Y007425D01*
X002620Y007495D01*
X002690Y007565D01*
X002760Y007565D01*
X002690Y007565D02*
X002620Y007635D01*
X002620Y007705D01*
X002690Y007775D01*
X002830Y007775D01*
X002900Y007705D01*
X003841Y007775D02*
X004051Y007775D01*
X004051Y007355D01*
X005770Y008705D02*
X005984Y008918D01*
X006037Y008918D01*
X006090Y008865D01*
X006090Y008758D01*
X006037Y008705D01*
X005770Y008705D02*
X005770Y008918D01*
X005380Y010165D02*
X005380Y010665D01*
X005130Y010915D01*
X004630Y010915D01*
X004380Y010665D01*
X003380Y010665D02*
X003130Y010915D01*
X002630Y010915D01*
X002380Y010665D01*
X002130Y010915D01*
X001630Y010915D01*
X001380Y010665D01*
X001380Y010165D01*
X001630Y009915D01*
X002130Y009915D01*
X002380Y010165D01*
X002630Y009915D01*
X003130Y009915D01*
X003380Y010165D01*
X002380Y010165D02*
X002380Y010665D01*
X001937Y009655D02*
X001723Y009655D01*
X001670Y009602D01*
X001670Y009495D01*
X001723Y009441D01*
X001937Y009655D01*
X001990Y009602D01*
X001990Y009495D01*
X001937Y009441D01*
X001723Y009441D01*
X001830Y009287D02*
X001830Y009073D01*
X001990Y009233D01*
X001670Y009233D01*
X001670Y008918D02*
X001670Y008705D01*
X001884Y008918D01*
X001937Y008918D01*
X001990Y008865D01*
X001990Y008758D01*
X001937Y008705D01*
X005380Y010665D02*
X005630Y010915D01*
X006130Y010915D01*
X006380Y010665D01*
M02*
