G75*
G70*
%OFA0B0*%
%FSLAX24Y24*%
%IPPOS*%
%LPD*%
%AMOC8*
5,1,8,0,0,1.08239X$1,22.5*
%
%ADD10C,0.0080*%
D10*
X001477Y009148D02*
X001530Y009148D01*
X001584Y009201D01*
X001584Y009468D01*
X001423Y009468D01*
X001370Y009415D01*
X001370Y009308D01*
X001423Y009255D01*
X001584Y009255D01*
X001738Y009255D02*
X001738Y009468D01*
X001898Y009468D01*
X001952Y009415D01*
X001952Y009255D01*
X002107Y009308D02*
X002107Y009415D01*
X002160Y009468D01*
X002320Y009468D01*
X002320Y009575D02*
X002320Y009255D01*
X002160Y009255D01*
X002107Y009308D01*
X002718Y009578D02*
X002718Y009925D01*
X002718Y009578D02*
X002891Y009405D01*
X003064Y009578D01*
X003064Y009925D01*
X003718Y009925D02*
X003718Y009405D01*
X003718Y009665D02*
X004064Y009665D01*
X004064Y009925D02*
X004064Y009405D01*
X004770Y009605D02*
X004930Y009605D01*
X004984Y009658D01*
X004984Y009765D01*
X004930Y009818D01*
X004770Y009818D01*
X004770Y009925D02*
X004770Y009605D01*
X005138Y009605D02*
X005245Y009605D01*
X005192Y009605D02*
X005192Y009925D01*
X005138Y009925D01*
X005384Y009818D02*
X005384Y009658D01*
X005437Y009605D01*
X005597Y009605D01*
X005597Y009818D01*
X005752Y009765D02*
X005806Y009818D01*
X005912Y009818D01*
X005966Y009765D01*
X005966Y009712D01*
X005752Y009712D01*
X005752Y009765D02*
X005752Y009658D01*
X005806Y009605D01*
X005912Y009605D01*
X006570Y009658D02*
X006623Y009605D01*
X006784Y009605D01*
X006784Y009551D02*
X006784Y009818D01*
X006623Y009818D01*
X006570Y009765D01*
X006570Y009658D01*
X006677Y009498D02*
X006730Y009498D01*
X006784Y009551D01*
X006938Y009605D02*
X006938Y009818D01*
X006938Y009712D02*
X007045Y009818D01*
X007098Y009818D01*
X007245Y009765D02*
X007299Y009818D01*
X007405Y009818D01*
X007459Y009765D01*
X007459Y009712D01*
X007245Y009712D01*
X007245Y009765D02*
X007245Y009658D01*
X007299Y009605D01*
X007405Y009605D01*
X007614Y009658D02*
X007614Y009765D01*
X007667Y009818D01*
X007774Y009818D01*
X007827Y009765D01*
X007827Y009712D01*
X007614Y009712D01*
X007614Y009658D02*
X007667Y009605D01*
X007774Y009605D01*
X007982Y009605D02*
X007982Y009818D01*
X008142Y009818D01*
X008195Y009765D01*
X008195Y009605D01*
X008970Y009605D02*
X008970Y009818D01*
X008970Y009712D02*
X009077Y009818D01*
X009130Y009818D01*
X009277Y009765D02*
X009330Y009818D01*
X009437Y009818D01*
X009490Y009765D01*
X009490Y009712D01*
X009277Y009712D01*
X009277Y009765D02*
X009277Y009658D01*
X009330Y009605D01*
X009437Y009605D01*
X009645Y009658D02*
X009699Y009605D01*
X009859Y009605D01*
X009859Y009925D01*
X009859Y009818D02*
X009699Y009818D01*
X009645Y009765D01*
X009645Y009658D01*
X010370Y009415D02*
X010370Y009308D01*
X010423Y009255D01*
X010584Y009255D01*
X010584Y009201D02*
X010584Y009468D01*
X010423Y009468D01*
X010370Y009415D01*
X010477Y009148D02*
X010530Y009148D01*
X010584Y009201D01*
X010738Y009255D02*
X010738Y009468D01*
X010898Y009468D01*
X010952Y009415D01*
X010952Y009255D01*
X011107Y009308D02*
X011107Y009415D01*
X011160Y009468D01*
X011320Y009468D01*
X011320Y009575D02*
X011320Y009255D01*
X011160Y009255D01*
X011107Y009308D01*
M02*
