G75*
G70*
%OFA0B0*%
%FSLAX24Y24*%
%IPPOS*%
%LPD*%
%AMOC8*
5,1,8,0,0,1.08239X$1,22.5*
%
%ADD10R,0.0513X0.0474*%
%ADD11C,0.0789*%
%ADD12C,0.1740*%
%ADD13R,0.0680X0.0680*%
%ADD14OC8,0.0680*%
%ADD15C,0.0350*%
D10*
X002380Y008830D03*
X002380Y009499D03*
X003080Y009499D03*
X003080Y008830D03*
X004680Y008830D03*
X004680Y009499D03*
X005380Y009499D03*
X005380Y008830D03*
X006980Y008830D03*
X006980Y009499D03*
X007680Y009499D03*
X007680Y008830D03*
X009280Y008830D03*
X009280Y009499D03*
X009980Y009499D03*
X009980Y008830D03*
D11*
X004675Y006015D03*
X005577Y006015D03*
X006026Y007015D03*
X005577Y008015D03*
X004675Y008015D03*
X005124Y007015D03*
X006478Y008015D03*
X007380Y008015D03*
X007829Y007015D03*
X006927Y007015D03*
X006478Y006015D03*
X007380Y006015D03*
X008282Y006015D03*
X008730Y007015D03*
X008282Y008015D03*
D12*
X011301Y007015D03*
X001459Y007015D03*
D13*
X010880Y010415D03*
D14*
X009880Y010415D03*
X008880Y010415D03*
X007880Y010415D03*
X006880Y010415D03*
X005880Y010415D03*
X004880Y010415D03*
X003880Y010415D03*
X002880Y010415D03*
X001880Y010415D03*
D15*
X002480Y009715D03*
M02*
